<?xml version="1.0" standalone="no"?>
<!DOCTYPE svg PUBLIC "-//W3C//DTD SVG 20010904//EN"
 "http://www.w3.org/TR/2001/REC-SVG-20010904/DTD/svg10.dtd">
<svg version="1.0" xmlns="http://www.w3.org/2000/svg"
 width="225.000000pt" height="155.000000pt" viewBox="0 0 225.000000 155.000000"
 preserveAspectRatio="xMidYMid meet">
<metadata>
Created by potrace 1.13, written by Peter Selinger 2001-2015
</metadata>
<g transform="translate(0.000000,155.000000) scale(0.100000,-0.100000)"
fill="#000000" stroke="none">
<path d="M545 1049 c-127 -39 -155 -215 -48 -296 81 -62 208 -32 252 60 26 53
26 90 2 142 -22 48 -44 69 -94 90 -40 17 -67 18 -112 4z m160 -59 c25 -25 25
-82 0 -110 -25 -27 -95 -28 -119 -1 -21 23 -24 85 -5 107 31 38 87 39 124 4z"/>
<path d="M1574 1041 c-151 -69 -116 -300 49 -318 60 -7 110 11 146 52 77 88
54 210 -49 263 -53 27 -92 28 -146 3z m59 -32 c47 -21 60 -80 26 -123 -43 -55
-139 -24 -139 45 0 69 53 105 113 78z"/>
<path d="M1034 985 c-14 -14 -31 -25 -39 -25 -12 0 -15 -17 -15 -80 0 -60 3
-80 13 -80 8 0 24 -11 37 -25 27 -28 47 -31 76 -11 17 12 22 12 39 0 26 -19
51 -18 74 5 11 11 27 21 38 23 15 3 18 15 21 86 2 71 1 82 -14 82 -9 0 -29 11
-46 25 -35 30 -39 30 -69 6 -23 -19 -24 -19 -48 0 -31 25 -37 24 -67 -6z"/>
</g>
</svg>
